<?xml version="1.0" standalone="no"?>
<!DOCTYPE svg PUBLIC "-//W3C//DTD SVG 20010904//EN"
 "http://www.w3.org/TR/2001/REC-SVG-20010904/DTD/svg10.dtd">
<svg version="1.0" xmlns="http://www.w3.org/2000/svg"
 width="500.000000pt" height="500.000000pt" viewBox="0 0 500.000000 500.000000"
 preserveAspectRatio="xMidYMid meet">

<g transform="translate(0.000000,500.000000) scale(0.100000,-0.100000)"
fill="#000000" stroke="none">
<path d="M2528 4981 c-7 -10 -26 -21 -43 -25 -27 -7 -28 -9 -13 -20 28 -20 11
-26 -76 -26 -45 0 -122 -5 -173 -10 -50 -5 -174 -12 -275 -15 -101 -3 -203 -9
-228 -14 l-45 -8 40 -3 c22 -1 247 -3 500 -4 562 -4 683 -13 668 -52 -3 -8 -1
-14 5 -14 6 0 12 4 14 9 2 5 17 11 33 13 29 3 30 1 33 -38 3 -40 5 -42 47 -53
24 -6 59 -11 78 -11 39 0 107 -25 107 -40 0 -5 17 -11 38 -13 20 -2 -6 -5 -58
-6 -76 -3 -87 -5 -56 -11 22 -4 76 -3 120 2 85 10 202 3 211 -13 4 -5 -2 -9
-11 -9 -10 0 -15 -3 -11 -6 3 -3 36 -6 73 -5 37 0 65 -1 63 -4 -9 -9 -348 -16
-783 -18 -292 -1 -443 -5 -448 -12 -4 -5 -8 -94 -8 -198 l0 -187 -42 -26 c-24
-14 -79 -45 -123 -70 -86 -49 -167 -131 -212 -214 -21 -39 -23 -54 -19 -110 3
-36 7 -101 10 -145 8 -125 13 -175 25 -244 9 -59 9 -66 -8 -77 -10 -8 -26 -42
-36 -77 -16 -62 -16 -67 4 -167 12 -56 21 -116 21 -132 0 -47 16 -68 53 -68
38 0 57 -15 57 -44 0 -12 12 -56 25 -100 30 -92 34 -80 -76 -212 -67 -81 -68
-82 -132 -94 -36 -6 -102 -27 -148 -46 -177 -73 -498 -174 -552 -174 -87 0
-127 -17 -184 -75 -56 -57 -109 -153 -138 -250 -42 -139 -55 -165 -91 -180
-33 -14 -48 -39 -20 -33 8 2 14 -1 13 -7 -3 -14 -58 -16 -84 -3 -29 14 -53 4
-46 -20 6 -24 -13 -38 -30 -23 -14 11 -57 4 -57 -9 0 -4 11 -11 25 -14 28 -7
34 -36 11 -56 -8 -6 -12 -18 -9 -26 8 -22 -7 -16 -29 11 -11 14 -26 25 -34 25
-16 0 -19 31 -3 47 7 7 3 12 -17 17 l-27 7 22 20 c14 13 29 18 39 14 11 -4 13
-3 7 3 -16 15 -125 2 -125 -14 0 -11 -8 -13 -27 -8 -16 4 -32 10 -36 14 -15
13 12 21 32 10 14 -7 22 -7 26 0 7 11 -3 90 -11 90 -3 0 -16 -7 -29 -16 -21
-13 -28 -14 -41 -4 -8 8 -14 25 -12 38 4 31 -21 42 -29 13 -4 -16 -11 -20 -25
-15 -17 5 -18 3 -8 -15 11 -22 6 -41 -11 -41 -5 0 -27 11 -48 24 -21 13 -51
26 -67 28 -22 2 -30 9 -32 28 -2 14 -8 30 -13 36 -5 6 -6 14 -2 17 14 14 37 6
74 -28 22 -19 43 -35 49 -35 14 0 1 27 -16 34 -8 3 -14 15 -14 28 0 12 -10 32
-22 45 -19 20 -20 25 -8 33 8 5 25 10 38 10 12 0 22 5 22 10 0 6 -17 10 -39
10 -30 0 -42 5 -55 25 -22 33 -56 34 -56 1 0 -14 5 -37 10 -52 8 -21 7 -31 -5
-44 -8 -9 -15 -20 -15 -25 0 -4 -8 -13 -17 -20 -14 -11 -15 -17 -6 -36 6 -13
14 -32 16 -41 4 -11 13 -15 26 -11 16 4 21 1 21 -15 0 -29 -20 -39 -36 -17
-13 17 -14 17 -20 0 -8 -21 7 -49 29 -53 9 -2 25 6 37 18 16 16 29 20 48 16
15 -4 54 -10 87 -14 75 -10 97 -22 101 -56 3 -25 -18 -37 -30 -17 -3 5 -15 11
-26 14 -15 4 -20 0 -20 -14 0 -10 6 -19 13 -19 6 -1 25 -12 42 -25 27 -22 29
-27 17 -45 -13 -21 -9 -40 9 -40 5 0 9 9 9 20 0 24 36 35 90 26 93 -15 117
-51 55 -80 -19 -9 -35 -23 -35 -31 0 -26 -24 -16 -43 16 -17 31 -19 32 -70 25
-29 -3 -62 -6 -74 -6 -18 0 -23 -6 -23 -24 0 -27 20 -39 41 -25 16 11 62 3
102 -18 20 -10 26 -19 22 -32 -3 -11 4 -26 21 -42 24 -22 26 -23 36 -6 5 10
23 33 39 52 25 29 28 37 19 55 -6 11 -8 25 -5 30 9 14 69 28 99 23 28 -6 31
-14 16 -43 -8 -16 -5 -22 20 -36 36 -22 24 -44 -25 -44 -36 0 -95 -41 -95 -66
0 -8 -10 -14 -25 -14 -28 0 -44 -25 -26 -43 6 -6 11 -19 11 -28 0 -9 7 -22 15
-29 29 -24 16 -33 -40 -28 -46 4 -55 2 -55 -12 0 -27 -10 -30 -31 -9 -10 10
-26 19 -35 19 -13 0 -11 -6 10 -25 14 -13 26 -35 26 -49 0 -24 -1 -24 -29 -10
-28 14 -58 64 -48 81 2 4 1 18 -4 31 -7 20 -11 21 -29 10 -11 -7 -20 -18 -20
-24 0 -6 -7 -17 -15 -24 -9 -8 -12 -22 -9 -43 10 -56 13 -61 29 -47 18 15 35
5 35 -21 0 -11 7 -22 15 -25 20 -8 19 -33 -2 -56 -16 -18 -16 -19 18 -17 40 2
97 -21 122 -49 13 -14 17 -32 15 -59 -3 -32 -6 -38 -25 -37 -13 0 -23 -5 -23
-13 0 -7 8 -13 19 -13 18 0 31 -25 31 -62 0 -26 -14 -22 -78 19 -31 21 -65 41
-75 45 -13 6 -16 14 -11 35 9 36 13 41 48 45 16 2 32 9 34 17 4 11 -7 13 -57
8 -64 -5 -68 -3 -49 37 9 21 8 29 -6 45 -9 10 -14 25 -10 35 7 17 -11 23 -21
6 -3 -5 -13 -10 -22 -10 -12 0 -14 8 -9 38 4 27 1 44 -10 58 -14 18 -15 17 -9
-14 4 -20 2 -38 -5 -47 -7 -8 -10 -21 -7 -30 4 -8 -1 -21 -9 -30 -16 -15 -64
-21 -64 -7 0 4 -12 16 -27 26 l-26 19 7 -36 c7 -39 -7 -50 -32 -25 -9 9 -12
-10 -12 -88 l0 -100 32 -19 c34 -20 24 -34 -11 -15 -20 10 -21 8 -21 -30 l0
-41 30 16 c35 18 64 20 56 3 -3 -7 -9 -20 -12 -29 -3 -9 -16 -21 -29 -27 -18
-8 -22 -16 -18 -33 5 -17 3 -21 -9 -17 -12 5 -13 1 -4 -27 9 -29 14 -33 49
-33 45 -1 61 -10 30 -18 -18 -5 -21 -11 -16 -42 5 -35 5 -36 -10 -17 -12 14
-16 16 -17 6 0 -8 -3 -11 -6 -8 -4 4 -1 14 6 22 11 13 11 19 -3 32 -8 9 -22
13 -31 10 -13 -5 -15 -27 -15 -127 0 -91 3 -120 13 -120 21 0 50 -37 35 -45
-7 -5 -16 -1 -21 9 -18 32 -28 4 -28 -75 l0 -79 100 0 c80 0 100 3 100 14 0 8
5 27 11 43 13 35 11 39 -14 35 -16 -3 -19 1 -14 17 6 23 -12 28 -30 10 -16
-16 -32 -3 -26 21 11 42 66 49 76 9 3 -11 14 -19 25 -19 18 0 20 -5 16 -37 -2
-21 -6 -49 -7 -63 l-2 -25 1316 -3 1315 -2 -7 47 c-3 27 -18 113 -33 193 -20
110 -26 165 -22 230 2 47 1 67 -2 45 l-7 -40 -14 65 c-13 62 -54 239 -142 605
-23 94 -57 222 -76 285 -49 164 -48 160 -26 131 10 -13 45 -50 78 -82 49 -48
61 -55 63 -39 5 31 -15 58 -76 98 -37 24 -60 48 -67 67 -5 17 -16 35 -23 40
-7 6 -33 70 -57 143 -96 289 -118 343 -241 610 -13 29 -24 55 -24 58 0 3 31
-19 68 -49 95 -77 179 -118 166 -82 -10 25 25 30 49 6 13 -12 16 -21 9 -21 -7
0 1 -15 18 -33 16 -17 28 -37 26 -44 -5 -11 132 -143 148 -143 10 0 7 76 -4
102 -6 13 -18 36 -28 53 l-19 30 49 62 c26 34 48 65 48 68 0 10 87 95 111 107
29 15 119 113 119 130 0 7 -5 7 -14 -1 -18 -15 -115 -51 -136 -51 -9 0 -34 -8
-56 -18 -51 -24 -156 -19 -152 6 2 12 -4 17 -19 16 -13 0 -23 3 -23 8 0 5 -4
6 -10 3 -5 -3 -10 3 -10 14 0 12 5 21 10 21 6 0 16 11 22 25 6 13 19 27 29 30
20 7 15 35 -7 35 -8 0 -14 5 -14 10 0 6 4 10 10 10 5 0 7 7 4 15 -4 8 -15 15
-25 15 -37 0 -18 15 38 32 62 18 80 15 49 -8 -11 -8 -16 -14 -10 -14 5 0 24
14 43 30 40 36 51 37 51 9 0 -18 3 -19 15 -9 8 6 18 9 23 6 21 -13 34 24 28
76 -3 29 -5 68 -5 87 0 26 -8 40 -37 64 l-36 31 87 13 c48 7 104 21 124 30 32
16 39 27 60 91 13 39 29 72 36 72 31 0 40 -33 40 -151 0 -64 3 -120 7 -124 11
-11 28 93 28 176 0 59 3 79 13 77 6 -2 22 7 35 20 12 12 34 22 48 22 18 0 25
4 21 14 -5 13 43 164 63 198 5 10 10 26 10 37 0 10 9 29 19 43 22 28 34 158
15 158 -19 0 -24 28 -7 34 9 4 17 5 18 4 1 -2 11 -19 23 -38 17 -28 22 -31 23
-15 0 11 1 45 2 75 l2 55 35 -1 c126 -4 167 -8 183 -16 16 -8 17 -42 17 -486
0 -359 -3 -481 -12 -490 -15 -15 -98 -15 -269 0 -134 11 -137 11 -164 -10 -33
-26 -72 -28 -97 -5 -22 20 -24 18 -33 -28 l-7 -36 123 -6 c67 -4 193 -7 279
-7 108 0 160 -4 168 -12 17 -17 16 -192 0 -206 -7 -5 -38 -12 -68 -15 -30 -3
-86 -10 -125 -16 -220 -31 -417 -126 -400 -193 3 -13 7 -31 8 -39 3 -21 29
-52 56 -67 28 -16 36 -10 22 16 -20 37 -13 80 14 98 23 15 27 15 52 -1 15 -10
38 -32 52 -49 14 -17 36 -40 48 -52 36 -34 55 -92 56 -169 0 -38 -3 -80 -7
-92 -7 -21 -9 -22 -35 -9 -15 8 -33 22 -40 30 -7 9 -40 29 -72 45 -58 29 -59
29 -59 8 1 -12 11 -53 24 -91 20 -59 21 -76 12 -110 -19 -73 -9 -174 22 -231
28 -48 28 -54 26 -180 -2 -104 -6 -141 -23 -186 -19 -49 -20 -64 -12 -124 6
-44 16 -72 26 -77 11 -7 15 -25 15 -69 0 -53 3 -62 20 -66 20 -5 20 -11 17
-242 -3 -237 -17 -397 -42 -481 -7 -25 -13 -57 -14 -73 0 -15 -8 -43 -16 -63
-8 -20 -12 -40 -9 -45 3 -5 0 -9 -5 -9 -6 0 -11 -4 -11 -10 0 -7 317 -10 930
-10 l930 0 0 838 0 838 -34 12 c-33 12 -39 24 -23 50 13 19 1 29 -49 41 -55
14 -70 5 -80 -45 -7 -39 -11 -40 -119 -48 -75 -5 -225 10 -239 24 -4 4 1 11
13 15 12 4 21 15 21 27 0 18 -4 20 -37 14 -21 -4 -65 -10 -98 -13 -45 -4 -65
-11 -80 -29 -20 -22 -21 -22 -104 -8 -47 7 -87 17 -91 21 -7 9 4 750 15 971
l6 143 -36 14 c-27 12 -57 14 -129 9 -51 -4 -105 -4 -120 0 l-26 6 0 496 c0
301 4 503 10 514 5 10 15 150 21 312 11 285 18 340 46 345 13 3 7 -22 -10 -45
-6 -7 -7 -44 -3 -90 3 -42 7 -114 7 -159 1 -46 5 -80 10 -77 4 2 5 80 2 171
-5 125 -3 164 5 159 8 -5 12 -44 12 -117 l0 -109 48 0 c27 0 51 -2 54 -5 10
-10 -5 -65 -18 -65 -10 0 -14 -13 -14 -40 0 -29 4 -40 15 -40 10 0 15 -11 15
-35 0 -19 -1 -37 -2 -40 -2 -2 6 -10 16 -18 13 -10 15 -16 8 -21 -19 -12 -14
-25 7 -19 16 4 22 -2 29 -28 9 -38 47 -54 48 -22 8 170 15 971 10 1006 l-7 47
-779 0 c-739 -1 -780 -2 -792 -19z m311 -1121 c47 -6 86 -12 89 -14 2 -2 6
-22 9 -43 5 -37 3 -41 -27 -55 -31 -15 -32 -16 -12 -27 24 -13 43 -61 35 -90
-3 -12 -1 -21 6 -21 6 0 11 -13 11 -29 0 -16 6 -36 13 -43 8 -7 12 -18 10 -24
-2 -6 6 -21 17 -34 11 -13 20 -25 20 -28 0 -3 -25 -2 -56 2 -38 4 -67 15 -91
33 -24 19 -49 27 -81 29 -136 7 -152 6 -185 -13 -30 -18 -44 -19 -127 -9 -40
5 -42 5 -34 17 4 6 -1 10 -12 8 -33 -5 -64 11 -66 34 -4 52 5 113 19 129 8 9
13 23 10 30 -2 7 3 27 11 43 9 17 16 36 16 44 1 24 49 50 111 61 124 23 151
25 190 17 22 -4 78 -12 124 -17z m478 -192 c-3 -8 -6 -5 -6 6 -1 11 2 17 5 13
3 -3 4 -12 1 -19z m-757 -208 c11 -7 7 -10 -18 -10 -20 0 -31 4 -27 10 8 13
26 13 45 0z m502 -57 c9 -10 18 -34 22 -53 l6 -35 -18 36 c-10 20 -24 44 -31
53 -18 22 2 21 21 -1z m-90 -28 c8 -32 2 -49 -7 -19 -4 10 -11 27 -16 38 -8
13 -7 17 2 14 7 -2 16 -17 21 -33z m78 11 c0 -11 -19 -15 -25 -6 -3 5 1 10 9
10 9 0 16 -2 16 -4z m-470 -36 c0 -5 -4 -10 -10 -10 -5 0 -10 5 -10 10 0 6 5
10 10 10 6 0 10 -4 10 -10z m-20 -99 c7 -29 27 -67 51 -96 21 -26 39 -57 39
-69 0 -11 14 -37 30 -56 16 -19 30 -38 30 -42 0 -13 -38 -9 -78 7 -20 9 -47
13 -59 10 -27 -6 -30 3 -5 21 15 13 15 13 -7 6 -27 -10 -71 -4 -71 8 0 5 3 16
6 25 6 14 9 14 23 2 29 -25 111 -31 111 -8 0 12 -64 31 -103 31 -20 0 -37 4
-37 9 0 5 -9 11 -20 14 -11 3 -20 13 -20 22 0 18 23 45 38 45 13 0 25 32 15
39 -5 3 -7 32 -5 64 l4 59 23 -22 c13 -12 29 -43 35 -69z m-520 1 c0 -21 -2
-24 -10 -12 -13 20 -13 53 0 45 6 -3 10 -18 10 -33z m593 -367 c36 -7 49 -27
26 -41 -6 -3 -31 -6 -55 -6 -25 1 -42 -3 -39 -8 6 -9 -95 -34 -104 -25 -10 11
24 24 49 19 20 -5 22 -3 10 5 -8 6 -31 9 -51 5 -40 -6 -54 5 -44 36 9 27 104
34 208 15z m-223 -25 c0 -11 -4 -20 -9 -20 -5 0 -7 9 -4 20 3 11 7 20 9 20 2
0 4 -9 4 -20z m1549 -73 c14 -18 5 -756 -11 -774 -6 -8 -33 -13 -69 -13 -48 0
-60 3 -69 20 -9 17 -16 352 -10 510 0 14 -2 69 -6 122 -3 54 -3 109 0 123 6
24 10 25 80 25 49 0 77 -4 85 -13z m-501 -368 l2 -44 -20 25 c-20 26 -25 51
-13 64 15 15 28 -3 31 -45z m152 24 c0 -16 -4 -34 -9 -42 -12 -19 -25 21 -16
49 9 29 25 24 25 -7z m-80 -18 c0 -19 -4 -35 -10 -35 -5 0 -10 16 -10 35 0 19
5 35 10 35 6 0 10 -16 10 -35z m-132 -13 c27 -48 14 -80 -14 -36 -10 16 -23
32 -28 35 -10 8 -1 39 12 39 5 0 18 -17 30 -38z m-65 21 c3 -5 8 -29 12 -54 7
-44 6 -47 -19 -53 -30 -7 -66 8 -66 28 0 7 -12 19 -27 26 l-28 14 28 4 c15 2
33 12 40 23 12 19 51 26 60 12z m608 -604 c5 -8 8 -70 8 -139 -1 -145 7 -235
27 -304 8 -27 14 -56 14 -63 0 -17 -106 -18 -117 0 -24 37 -73 267 -73 342 0
52 -3 65 -15 65 -24 0 -31 31 -11 42 10 6 24 26 33 45 l14 35 56 -4 c32 -3 59
-11 64 -19z m-266 -69 c3 -5 2 -10 -4 -10 -5 0 -13 5 -16 10 -3 6 -2 10 4 10
5 0 13 -4 16 -10z m-3307 -193 c2 -10 -3 -17 -11 -17 -16 0 -30 24 -19 34 10
10 27 1 30 -17z m274 -69 c-15 -15 -24 -6 -16 16 5 12 10 14 17 7 8 -8 8 -14
-1 -23z m4028 -8 c0 -5 -2 -10 -4 -10 -3 0 -8 5 -11 10 -3 6 -1 10 4 10 6 0
11 -4 11 -10z m-590 -134 c0 -2 -7 -7 -16 -10 -8 -3 -12 -2 -9 4 6 10 25 14
25 6z m-3413 -61 c7 -20 -26 -107 -37 -100 -16 10 -22 72 -11 94 14 25 39 28
48 6z m3443 -54 c0 -11 5 -23 10 -26 21 -13 -3 -25 -51 -25 -58 0 -93 -15 -85
-36 4 -9 -8 -30 -29 -51 l-34 -35 -7 28 c-3 16 -12 54 -20 85 -8 31 -14 60
-14 63 0 10 78 7 125 -6 39 -11 47 -10 62 5 23 23 43 22 43 -2z m420 -25 c0
-3 -4 -8 -10 -11 -5 -3 -10 -1 -10 4 0 6 5 11 10 11 6 0 10 -2 10 -4z m-3930
-95 c0 -32 -20 -76 -41 -89 -29 -18 -42 -5 -35 37 8 52 76 99 76 52z m-125
-56 c0 -5 -10 -11 -22 -13 -16 -2 -23 2 -23 13 0 11 7 15 23 13 12 -2 22 -7
22 -13z m3625 -16 c0 -18 -2 -19 -15 -9 -8 7 -15 16 -15 21 0 5 7 9 15 9 9 0
15 -9 15 -21z m-3660 -103 c0 -7 -6 -19 -14 -25 -19 -16 -32 5 -16 24 16 19
30 19 30 1z m88 -67 c-7 -70 -25 -84 -33 -25 -8 54 -2 76 21 76 14 0 16 -8 12
-51z m-284 24 c5 -11 1 -22 -10 -30 -23 -17 -34 -16 -34 1 0 42 31 63 44 29z
m-130 -37 c24 4 45 0 74 -15 46 -23 65 -51 59 -84 -4 -20 -5 -19 -18 11 -16
38 -22 39 -83 12 -33 -15 -56 -19 -82 -14 -33 6 -35 8 -28 38 4 17 14 42 23
55 13 21 16 22 19 8 3 -14 10 -16 36 -11z m4611 -106 c46 -17 60 -71 21 -78
-24 -5 -111 79 -93 90 11 7 27 5 72 -12z m-4672 -30 c-4 -16 -8 -18 -19 -9
-20 16 -17 29 5 29 14 0 18 -5 14 -20z m125 -2 c-3 -7 -13 -15 -24 -17 -16 -3
-17 -1 -5 13 16 19 34 21 29 4z m22 -43 c0 -16 -6 -25 -15 -25 -18 0 -20 21
-3 38 17 17 18 16 18 -13z m291 -98 c-13 -13 -14 5 -3 43 l7 25 3 -29 c2 -16
-1 -33 -7 -39z m-240 27 c9 -11 23 -14 46 -11 31 5 32 4 22 -14 -8 -16 -7 -29
5 -54 9 -19 21 -37 26 -40 6 -3 10 -15 10 -25 0 -11 12 -24 30 -32 23 -10 30
-19 30 -40 0 -28 -22 -39 -35 -18 -14 22 -33 8 -38 -27 -11 -73 -19 -103 -28
-98 -4 3 -5 13 -2 21 3 9 0 20 -8 26 -11 7 -11 11 -1 15 19 8 15 20 -28 78
-22 30 -40 59 -40 65 0 7 -10 20 -22 29 -17 14 -21 27 -20 66 3 67 25 92 53
59z m4534 -8 c32 -23 3 -46 -56 -46 -45 0 -49 2 -49 23 0 13 3 27 7 30 12 12
79 7 98 -7z m-4385 -146 c0 -5 -2 -10 -4 -10 -3 0 -8 5 -11 10 -3 6 -1 10 4
10 6 0 11 -4 11 -10z m80 -105 c0 -8 -4 -15 -10 -15 -5 0 -10 7 -10 15 0 8 5
15 10 15 6 0 10 -7 10 -15z m-246 -22 c23 -83 16 -119 -15 -79 -18 23 -26 76
-12 89 11 12 21 8 27 -10z m156 -88 c0 -8 -4 -15 -10 -15 -5 0 -12 -11 -16
-25 -4 -16 -13 -25 -25 -25 -28 0 -23 27 9 55 32 28 42 31 42 10z m-116 -29
c-9 -15 -19 -24 -22 -22 -2 3 3 17 12 32 10 14 20 23 23 21 2 -3 -3 -17 -13
-31z m-184 -111 c0 -8 -7 -15 -15 -15 -8 0 -15 7 -15 15 0 8 7 15 15 15 8 0
15 -7 15 -15z m4880 0 c0 -8 -4 -15 -9 -15 -13 0 -22 16 -14 24 11 11 23 6 23
-9z"/>
<path d="M2516 3618 c-9 -17 -16 -33 -16 -35 0 -10 39 -1 50 11 6 8 21 16 33
18 19 3 18 5 -12 21 -19 9 -35 17 -37 17 -1 0 -10 -14 -18 -32z"/>
<path d="M4324 4984 c5 -12 -12 -33 -54 -73 -40 -38 -60 -64 -60 -80 0 -20 4
-22 23 -16 12 4 36 9 52 12 37 7 61 27 69 57 7 28 82 80 103 72 23 -9 11 -77
-26 -148 -37 -69 -41 -127 -12 -135 14 -4 21 -15 23 -41 5 -55 22 -48 51 19
15 35 29 60 32 58 2 -3 -2 -36 -10 -74 -18 -83 -17 -75 -6 -75 9 0 29 67 42
140 18 107 50 190 73 190 12 0 5 -48 -19 -135 -27 -98 -34 -177 -13 -140 7 11
28 67 47 125 20 58 41 105 46 105 6 0 16 -36 23 -80 7 -44 20 -87 28 -95 12
-12 14 -8 14 37 0 28 -7 70 -15 93 -18 52 -18 50 1 50 14 0 16 8 10 60 -4 36
-3 60 3 60 5 0 34 -20 65 -46 31 -25 56 -42 56 -38 0 4 -19 31 -41 61 l-41 53
-104 0 c-69 0 -104 -4 -104 -11 0 -6 9 -13 20 -16 11 -3 20 -7 20 -9 0 -8 -70
-148 -81 -160 -6 -8 -15 -11 -20 -8 -18 11 -8 60 21 104 35 53 37 64 10 55
-16 -5 -20 -2 -20 19 l0 26 -106 0 c-94 0 -105 -2 -100 -16z"/>
<path d="M4750 4827 c0 -2 9 -32 20 -66 16 -48 34 -75 79 -121 32 -33 64 -60
71 -60 21 0 3 44 -36 86 -20 21 -56 67 -81 102 -40 55 -53 70 -53 59z"/>
<path d="M2870 4720 c0 -5 5 -10 10 -10 6 0 10 5 10 10 0 6 -4 10 -10 10 -5 0
-10 -4 -10 -10z"/>
<path d="M1596 4627 c-15 -11 -11 -14 29 -25 25 -7 43 -17 40 -22 -3 -6 -2
-10 3 -10 6 0 13 7 16 16 5 14 15 15 59 9 67 -10 228 -11 252 -1 39 15 -5 27
-111 32 -60 2 -146 6 -190 9 -55 2 -87 0 -98 -8z"/>
<path d="M1413 4623 c-59 -7 -35 -18 32 -15 36 2 65 8 65 13 0 9 -35 10 -97 2z"/>
<path d="M3871 4114 c0 -11 3 -14 6 -6 3 7 2 16 -1 19 -3 4 -6 -2 -5 -13z"/>
<path d="M4291 3523 c2 -79 6 -70 11 25 2 28 0 52 -4 52 -5 0 -7 -35 -7 -77z"/>
<path d="M4332 3580 c-4 -53 11 -130 24 -130 9 0 14 12 14 35 0 24 -5 35 -14
35 -10 0 -16 14 -19 43 -2 23 -4 31 -5 17z"/>
<path d="M4406 3529 c-3 -17 -6 -60 -6 -95 0 -35 -4 -64 -8 -64 -11 0 -25
-360 -16 -384 10 -26 24 0 24 47 0 23 5 37 13 37 9 0 12 55 12 239 0 229 -5
288 -19 220z"/>
<path d="M4465 3529 c-9 -35 -3 -84 10 -84 14 0 19 70 6 92 -8 16 -10 15 -16
-8z"/>
<path d="M4470 3273 c0 -70 -4 -124 -10 -128 -13 -8 -13 -75 -1 -75 6 0 12
-17 14 -37 2 -21 3 -15 2 12 -2 28 1 111 5 185 4 74 4 142 -1 150 -5 9 -9 -35
-9 -107z"/>
<path d="M4320 3336 c0 -19 -4 -38 -10 -41 -5 -3 -10 -37 -10 -75 0 -67 7 -80
41 -80 5 0 9 52 9 115 0 96 -3 115 -15 115 -10 0 -15 -10 -15 -34z"/>
<path d="M4262 3225 c-1 -54 3 -88 13 -105 l14 -25 1 28 c0 15 -4 27 -10 27
-5 0 -11 35 -13 78 l-3 77 -2 -80z"/>
<path d="M3190 3271 c0 -6 4 -12 9 -15 4 -3 11 -36 15 -73 9 -95 22 -110 31
-36 7 67 -12 133 -39 133 -9 0 -16 -4 -16 -9z"/>
<path d="M3110 3146 c0 -8 9 -31 21 -50 13 -23 18 -43 14 -56 -6 -18 -3 -21
17 -18 19 2 24 10 26 41 2 21 -1 37 -7 37 -6 0 -17 14 -26 30 -16 31 -45 41
-45 16z"/>
<path d="M4327 3117 c-12 -30 -8 -205 4 -184 5 9 7 21 4 27 -3 5 0 18 6 28 9
14 10 37 3 83 -6 44 -11 58 -17 46z"/>
<path d="M3101 3001 c-8 -6 -9 -11 -3 -15 6 -3 14 -1 17 5 9 14 2 20 -14 10z"/>
<path d="M4273 2955 c1 -22 7 -35 16 -35 8 0 11 6 7 16 -3 9 -6 24 -6 35 0 10
-4 19 -9 19 -5 0 -9 -16 -8 -35z"/>
<path d="M2937 2294 c-4 -4 -7 -46 -7 -94 0 -64 -7 -108 -25 -171 -32 -103
-44 -266 -25 -325 7 -21 28 -56 48 -76 32 -34 34 -40 29 -80 -13 -90 -29 -149
-53 -183 -23 -34 -24 -40 -17 -158 7 -116 7 -120 19 -82 7 22 13 53 13 69 1
16 24 97 53 180 l51 151 0 245 c1 210 -2 250 -16 277 -9 18 -17 48 -17 67 0
19 -5 47 -11 63 -6 15 -16 49 -23 76 -7 26 -15 44 -19 41z"/>
<path d="M260 1880 c0 -5 5 -10 11 -10 5 0 7 5 4 10 -3 6 -8 10 -11 10 -2 0
-4 -4 -4 -10z"/>
<path d="M384 1835 c-18 -13 -18 -14 4 -35 25 -23 27 -31 11 -47 -7 -7 -7 -13
-1 -17 6 -4 17 6 24 21 15 30 38 42 38 19 0 -18 33 -42 73 -52 25 -6 28 -4 25
12 -3 19 -62 55 -110 67 -16 4 -28 14 -28 22 0 21 -15 26 -36 10z"/>
<path d="M242 1818 c3 -7 13 -15 24 -17 16 -3 17 -1 5 13 -16 19 -34 21 -29 4z"/>
<path d="M306 1812 c-2 -4 -1 -14 4 -22 7 -11 11 -11 24 -1 9 8 16 17 16 22 0
11 -37 12 -44 1z"/>
<path d="M2680 1615 c-11 -13 -10 -14 4 -9 9 3 16 10 16 15 0 13 -6 11 -20 -6z"/>
<path d="M35 1601 c-24 -5 -30 -12 -30 -31 0 -18 5 -25 21 -25 24 0 94 -91 94
-120 0 -30 33 -12 35 19 0 18 11 36 28 50 32 26 33 32 7 39 -13 3 -20 14 -20
29 0 39 -57 56 -135 39z"/>
<path d="M0 1465 c0 -48 23 -64 35 -25 6 19 -17 70 -30 70 -3 0 -5 -20 -5 -45z"/>
<path d="M460 1450 c0 -5 5 -10 10 -10 6 0 10 5 10 10 0 6 -4 10 -10 10 -5 0
-10 -4 -10 -10z"/>
<path d="M23 1400 c-3 -11 -9 -20 -14 -20 -5 0 -9 -10 -9 -23 0 -21 4 -23 31
-19 25 4 36 -1 51 -19 17 -23 19 -23 32 -6 7 9 24 17 37 17 17 0 20 3 12 11
-8 8 -20 9 -42 1 -29 -10 -31 -9 -51 34 -24 48 -39 56 -47 24z"/>
<path d="M575 1390 c3 -5 10 -10 16 -10 5 0 9 5 9 10 0 6 -7 10 -16 10 -8 0
-12 -4 -9 -10z"/>
<path d="M250 1309 c0 -6 -8 -8 -19 -4 -22 7 -70 -35 -95 -83 -16 -31 -16 -36
-2 -57 9 -14 16 -27 16 -30 0 -11 -38 -4 -50 10 -9 11 -16 12 -30 2 -15 -9
-23 -8 -38 6 -27 25 -32 21 -31 -20 1 -38 44 -123 66 -130 7 -3 15 11 19 31 6
33 52 87 83 97 8 3 7 15 -1 42 -10 33 -9 41 9 65 25 34 49 39 74 16 13 -11 17
-24 13 -40 -5 -21 -3 -24 22 -24 16 0 38 -7 48 -15 25 -19 37 -19 29 0 -3 9 2
24 11 34 16 17 15 21 -6 54 -13 19 -33 40 -46 46 -29 14 -72 14 -72 0z"/>
</g>
</svg>
